<svg width="64" height="64" viewBox="0 0 64 64" fill="none" xmlns="http://www.w3.org/2000/svg">
  <rect width="64" height="64" rx="14" fill="url(#bg)"/>
  <g transform="translate(12, 8)">
    <circle cx="20" cy="10" r="6" fill="url(#fg)" opacity="0.95"/>
    <path d="M14 16 L20 16 L26 16 L28 32 L12 32 Z" fill="url(#fg)" opacity="0.85"/>
    <path d="M26 18 L38 14 L40 13" stroke="url(#fg)" stroke-width="4.5" stroke-linecap="round"/>
    <circle cx="40" cy="13" r="3.5" fill="#00d4ff"/>
    <path d="M14 18 L10 14" stroke="url(#fg)" stroke-width="4" stroke-linecap="round"/>
    <circle cx="10" cy="13" r="3" fill="url(#fg)" opacity="0.7"/>
    <path d="M22 32 L26 46" stroke="url(#fg)" stroke-width="4" stroke-linecap="round"/>
    <path d="M18 32 L12 46" stroke="url(#fg)" stroke-width="4" stroke-linecap="round"/>
  </g>
  <path d="M6 16 L6 6 L16 6" stroke="#00d4ff" stroke-width="1.5" stroke-linecap="round" opacity="0.6"/>
  <path d="M58 48 L58 58 L48 58" stroke="#7c3aed" stroke-width="1.5" stroke-linecap="round" opacity="0.6"/>
  <defs>
    <linearGradient id="bg" x1="0" y1="0" x2="64" y2="64" gradientUnits="userSpaceOnUse">
      <stop stop-color="#0a0a1a"/><stop offset="1" stop-color="#0f0a20"/>
    </linearGradient>
    <linearGradient id="fg" x1="10" y1="8" x2="42" y2="48" gradientUnits="userSpaceOnUse">
      <stop stop-color="#00d4ff"/><stop offset="1" stop-color="#7c3aed"/>
    </linearGradient>
  </defs>
</svg>
